<svg width="510" height="136" viewBox="0 0 510 136" fill="none" xmlns="http://www.w3.org/2000/svg">
<path d="M343.992 13.8599C339.684 12.2162 337.967 8.38484 339.613 4.0933C340.549 1.65569 345.595 -0.58941 348.499 0.139661C351.364 0.858565 354.992 4.9769 354.992 7.50904C354.992 11.1481 347.787 15.3079 343.992 13.8599Z" fill="black"/>
<path d="M460.992 64.0039C460.992 63.7053 464.564 58.6734 468.93 52.8222C475.011 44.6718 476.646 41.8167 475.918 40.6152C475.395 39.7526 471.838 34.7719 468.013 29.5469L461.058 20.0469L466.733 19.7408C474.779 19.3068 476.027 19.8881 480.285 26.0543C482.371 29.0752 484.396 31.5423 484.785 31.5367C485.174 31.5329 487.456 28.8311 489.856 25.5367L494.22 19.5469H501.106C504.893 19.5469 507.992 19.7937 507.992 20.0951C507.992 20.3967 504.617 25.0999 500.492 30.5469C496.367 35.9938 492.992 40.945 492.992 41.5495C492.992 42.1541 495.589 46.1133 498.764 50.3478C501.938 54.5823 505.569 59.5094 506.832 61.2969L509.128 64.5469H501.705H494.282L490.097 58.5814C487.796 55.3004 485.554 52.394 485.115 52.1228C484.676 51.8514 482.183 54.536 479.575 58.0883L474.833 64.5469H467.912C464.106 64.5469 460.992 64.3024 460.992 64.0039Z" fill="black"/>
<path d="M362.992 42.0469V19.5469H368.992C374.745 19.5469 374.992 19.6512 374.992 22.0768V24.6068L378.035 22.3571C380.304 20.6793 382.815 20.0093 387.911 19.7213C396.416 19.2407 401.081 21.2141 404.831 26.8788C407.403 30.7636 407.504 31.4615 407.843 47.7225L408.194 64.5469H401.593H394.992V52.0148C394.992 34.8022 393.008 30.5469 384.981 30.5469C382.841 30.5469 380.906 31.4794 378.915 33.47C376.476 35.9091 375.992 37.2081 375.992 41.3164C375.992 44.0242 375.7 50.3588 375.342 55.3933L374.693 64.5469H368.842H362.992L362.992 42.0469Z" fill="black"/>
<path d="M339.992 42.0469V19.5469H346.492H352.992V42.0469V64.5469H346.492H339.992V42.0469Z" fill="black"/>
<path d="M317.992 34.0469V3.54688H324.492H330.992V34.0469V64.5469H324.492H317.992V34.0469Z" fill="black"/>
<path d="M227.515 55.2959C225.413 50.2084 221.908 41.7709 219.725 36.5458C211.071 15.8334 207.992 8.17895 207.992 7.38049C207.992 6.92142 211.08 6.54584 214.853 6.54584H221.714L229.992 26.6066C234.545 37.64 238.626 46.3025 239.06 45.8566C239.494 45.4107 240.816 42.5709 241.997 39.5459C243.178 36.5208 246.861 27.8583 250.18 20.2959L256.217 6.54584H262.721C270.227 6.54584 270.07 5.64276 264.728 18.0458C262.833 22.4458 257.574 34.7084 253.042 45.2959L244.802 64.5458H238.069H231.336L227.515 55.2959Z" fill="black"/>
<path d="M433.436 64.6302C428.318 63.7895 420.712 59.3788 418.197 55.7931C415.043 51.2974 413.693 45.7333 414.31 39.7638C415.565 27.5949 424.852 19.5469 437.639 19.5469C451.449 19.5469 459.869 27.2856 460.304 40.3776L460.493 46.0469L443.72 46.3213C427.216 46.5911 426.966 46.6282 428.034 48.6248C431.059 54.2761 440.47 56.1475 447.531 52.5017L451.493 50.4563L454.819 54.2516L458.145 58.047L455.007 60.6714C453.161 62.215 449.561 63.7592 446.264 64.4213C440.235 65.6321 439.598 65.6424 433.436 64.6302ZM447.993 36.7199C447.993 35.9902 446.677 34.0776 445.069 32.4699C442.676 30.0766 441.303 29.5469 437.492 29.5469C433.682 29.5469 432.309 30.0766 429.916 32.4699C424.933 37.4525 425.741 38.0469 437.492 38.0469C445.55 38.0469 447.993 37.7385 447.993 36.7199Z" fill="black"/>
<path d="M281.706 64.1247C271.238 61.3097 265.492 53.4581 265.492 41.968C265.492 35.8585 265.904 34.2152 268.497 29.968C272.609 23.233 279.757 19.5469 288.704 19.5469C302.446 19.5469 310.869 27.3107 311.304 40.3776L311.492 46.0469L294.53 46.5469L277.568 47.0469L280.612 50.4507C283.236 53.3847 284.433 53.9189 289.287 54.3214C293.728 54.6896 295.643 54.3608 298.347 52.765L301.777 50.7416L305.499 54.554L309.222 58.3665L305.104 61.0915C298.583 65.4071 290.413 66.4662 281.706 64.1247ZM297.474 34.5123C295.555 30.8013 293.157 29.5469 287.981 29.5469C284.736 29.5469 283.205 30.18 280.915 32.4699C275.88 37.5052 276.714 38.085 288.483 37.7327L298.977 37.4186L297.474 34.5123Z" fill="black"/>
<path d="M96.5153 116.592C95.1276 113.854 93.9922 111.135 93.9922 110.55C93.9922 109.086 110.329 73.5469 111.001 73.5469C111.299 73.5469 113.331 78.2657 115.517 84.0331L119.492 94.5194L133.723 94.5345L147.954 94.5496L148.577 91.7997C148.92 90.2872 149.519 87.6997 149.909 86.0496L150.617 83.0496L167.305 82.7756C176.483 82.6248 183.992 82.869 183.992 83.3182C183.992 83.7675 181.335 92.4409 178.087 102.592L172.181 121.05L135.61 121.312L99.0383 121.574L96.5153 116.592Z" fill="#3EECFF"/>
<path d="M48.5514 119.279C46.2834 115.817 -0.0181326 15.113 5.32755e-06 13.6811C0.00454076 13.3326 7.34555 12.9007 16.3136 12.7208C28.9784 12.4668 32.8528 12.6906 33.6654 13.7208C34.2408 14.4507 36.7416 19.5478 39.2229 25.0479C52.7965 55.1354 64.2157 80.0971 64.5697 80.4548C64.7912 80.6785 65.8916 78.6536 67.0151 75.9548C68.1385 73.256 75.0283 57.9979 82.3258 42.0479L95.5939 13.0479L133.043 12.8328C153.64 12.7145 170.994 12.9394 171.607 13.3328C172.22 13.726 174.614 20.1228 176.926 27.5478C179.239 34.9728 181.775 43.0405 182.562 45.4759C183.348 47.9114 183.992 50.0489 183.992 50.226C183.992 50.4028 176.407 50.5476 167.137 50.5476H150.281L148.878 45.2976L147.474 40.0476H132.102H116.73L108.818 57.5476C94.5457 89.1112 80.6637 119.024 79.6964 120.298C79.0145 121.195 74.7032 121.548 64.3926 121.548C50.5743 121.548 49.9826 121.463 48.5514 119.279Z" fill="#3EECFF"/>
<path d="M270.992 104.047V73.5469H274.492H277.992V104.047V134.547H274.492H270.992V104.047Z" fill="#3EECFF"/>
<path d="M399.492 134.618C395.031 133.542 392.607 132.012 389.183 128.112C383.523 121.666 382.398 111.51 386.394 102.93C391.713 91.5065 405.512 87.339 415.523 94.1325C417.479 95.4604 419.285 96.5469 419.536 96.5469C419.786 96.5469 419.992 91.3719 419.992 85.0469V73.5469H423.491H426.991V104.047V134.547H423.491C420.425 134.547 419.992 134.237 419.992 132.047C419.992 129.137 419.319 128.941 416.886 131.142C412.969 134.687 405.753 136.129 399.492 134.618ZM412.693 126.587C416.988 123.968 419.368 119.142 419.368 113.047C419.368 103.894 413.69 97.5544 405.492 97.5544C397.293 97.5544 391.615 103.894 391.615 113.047C391.615 122.2 397.293 128.539 405.492 128.539C407.699 128.539 410.926 127.664 412.693 126.587Z" fill="#3EECFF"/>
<path d="M348.992 134.38C344.338 133.068 339.538 128.313 338.132 123.621C337.505 121.527 336.992 113.455 336.992 105.681V91.5469H340.992H344.992V106C344.992 121.814 345.73 124.843 350.137 127.122C355.813 130.057 363.003 128.186 366.563 122.848C368.112 120.526 368.499 117.61 368.823 105.797L369.215 91.5469H372.603H375.992V113.047V134.547H372.492C369.371 134.547 368.992 134.26 368.992 131.892C368.992 129.331 368.924 129.299 367.058 130.987C364.665 133.153 358.335 135.475 354.992 135.413C353.617 135.386 350.917 134.923 348.992 134.38Z" fill="#3EECFF"/>
<path d="M302.35 134.649C296.981 133.275 292.088 129.568 289.233 124.711C285.462 118.295 285.322 108.108 288.92 101.816C291.921 96.5694 297.564 92.735 304.328 91.3474C323.666 87.3799 337.154 109.651 325.706 126.647C321.385 133.061 310.593 136.759 302.35 134.649ZM314.958 126.797C319.711 124.399 322.145 119.815 322.205 113.145C322.287 103.982 316.561 97.5483 308.322 97.5483C299.774 97.5483 293.989 103.801 293.996 113.033C294.003 124.804 304.825 131.909 314.958 126.797Z" fill="#3EECFF"/>
<path d="M232.943 134.249C219.297 130.383 211.159 118.374 212.219 103.665C213.075 91.798 218.66 83.9104 229.849 78.767C234.472 76.6421 236.254 76.3672 242.849 76.7612C250.481 77.2171 255.374 79.0091 260.856 83.3555L263.22 85.23L260.493 87.9574L257.765 90.6849L255.615 88.6647C250.353 83.721 240.331 82.1275 233.21 85.1022C218.876 91.09 215.303 110.889 226.528 122.132C234.193 129.809 247.028 130.597 255.009 123.881L258.088 121.291L260.546 123.599L263.003 125.908L260.832 128.22C255.386 134.017 242.191 136.869 232.943 134.249Z" fill="#3EECFF"/>
</svg>
